<svg width="35" height="35" viewBox="0 0 35 35" fill="none" xmlns="http://www.w3.org/2000/svg">
<mask id="mask0_30_3403" style="mask-type:alpha" maskUnits="userSpaceOnUse" x="0" y="0" width="35" height="35">
<rect width="35" height="35" fill="#D9D9D9"/>
</mask>
<g mask="url(#mask0_30_3403)">
<path d="M25.5937 17.5L20.4166 12.3229L22.4948 10.2812L25.5937 13.3802L31.7916 7.18227L33.8333 9.2604L25.5937 17.5ZM13.125 17.5C11.5208 17.5 10.1475 16.9288 9.00519 15.7864C7.86283 14.6441 7.29165 13.2708 7.29165 11.6666C7.29165 10.0625 7.86283 8.68922 9.00519 7.54685C10.1475 6.40449 11.5208 5.83331 13.125 5.83331C14.7291 5.83331 16.1024 6.40449 17.2448 7.54685C18.3871 8.68922 18.9583 10.0625 18.9583 11.6666C18.9583 13.2708 18.3871 14.6441 17.2448 15.7864C16.1024 16.9288 14.7291 17.5 13.125 17.5ZM1.45831 29.1666V25.0833C1.45831 24.2569 1.67099 23.4974 2.09633 22.8047C2.52168 22.112 3.08679 21.5833 3.79165 21.2187C5.29859 20.4653 6.82984 19.9002 8.3854 19.5234C9.94095 19.1467 11.5208 18.9583 13.125 18.9583C14.7291 18.9583 16.309 19.1467 17.8646 19.5234C19.4201 19.9002 20.9514 20.4653 22.4583 21.2187C23.1632 21.5833 23.7283 22.112 24.1536 22.8047C24.579 23.4974 24.7916 24.2569 24.7916 25.0833V29.1666H1.45831ZM4.37498 26.25H21.875V25.0833C21.875 24.816 21.8081 24.5729 21.6745 24.3541C21.5408 24.1354 21.3646 23.9653 21.1458 23.8437C19.8333 23.1875 18.5087 22.6953 17.1719 22.3672C15.835 22.039 14.4861 21.875 13.125 21.875C11.7639 21.875 10.4149 22.039 9.0781 22.3672C7.7413 22.6953 6.41665 23.1875 5.10415 23.8437C4.8854 23.9653 4.70918 24.1354 4.5755 24.3541C4.44182 24.5729 4.37498 24.816 4.37498 25.0833V26.25ZM13.125 14.5833C13.9271 14.5833 14.6137 14.2977 15.1849 13.7265C15.7561 13.1554 16.0416 12.4687 16.0416 11.6666C16.0416 10.8646 15.7561 10.1779 15.1849 9.60675C14.6137 9.03557 13.9271 8.74998 13.125 8.74998C12.3229 8.74998 11.6363 9.03557 11.0651 9.60675C10.4939 10.1779 10.2083 10.8646 10.2083 11.6666C10.2083 12.4687 10.4939 13.1554 11.0651 13.7265C11.6363 14.2977 12.3229 14.5833 13.125 14.5833Z" fill="#F9F328"/>
</g>
</svg>
