<svg width="34" height="34" viewBox="0 0 34 34" fill="none" xmlns="http://www.w3.org/2000/svg">
<mask id="mask0_30_3415" style="mask-type:alpha" maskUnits="userSpaceOnUse" x="0" y="0" width="34" height="34">
<rect x="0.5" y="0.5" width="33" height="33" fill="#D9D9D9"/>
<rect x="0.5" y="0.5" width="33" height="33" stroke="black"/>
<rect x="0.5" y="0.5" width="33" height="33" stroke="black" stroke-opacity="0.2"/>
</mask>
<g mask="url(#mask0_30_3415)">
<path d="M6.58309 28.3333H7.19265C7.55316 28.6673 7.99864 28.8333 8.49976 28.8333H21.2498H21.7498V28.3333V25.5V25H21.2498H7.08309H6.58309V25.5V26.9166V28.3333ZM10.9783 5.31187L12.7498 3.54042L14.5212 5.31187L14.8748 5.66542L15.2283 5.31187L16.9998 3.54042L18.7712 5.31187L19.1248 5.66542L19.4783 5.31187L21.2498 3.54042L23.0212 5.31187L23.3748 5.66542L23.7283 5.31187L25.4998 3.54042L27.2712 5.31187L27.6248 5.66542L27.9783 5.31187L29.2498 4.04042V26.9166C29.2498 27.9661 28.8882 28.842 28.1566 29.5735C27.4251 30.3051 26.5492 30.6666 25.4998 30.6666H8.49976C7.45029 30.6666 6.57445 30.3051 5.84289 29.5735C5.11134 28.842 4.74976 27.9661 4.74976 26.9166V23.1666H8.49976H8.99976V22.6666V4.04042L10.2712 5.31187L10.6248 5.66542L10.9783 5.31187ZM27.4164 7.08331V6.58331H26.9164H11.3331H10.8331V7.08331V22.6666V23.1666H11.3331H23.5831V26.9166C23.5831 27.444 23.7669 27.9097 24.1368 28.2796C24.5068 28.6495 24.9724 28.8333 25.4998 28.8333C26.0271 28.8333 26.4928 28.6495 26.8627 28.2796C27.2326 27.9097 27.4164 27.444 27.4164 26.9166V7.08331ZM13.2498 12.25V10.4166H20.7498V12.25H13.2498ZM13.2498 16.5V14.6666H20.7498V16.5H13.2498ZM24.0831 12.25C23.8076 12.25 23.6004 12.1623 23.4273 11.9891C23.2541 11.816 23.1664 11.6088 23.1664 11.3333C23.1664 11.0578 23.2541 10.8506 23.4273 10.6775C23.6004 10.5044 23.8076 10.4166 24.0831 10.4166C24.3586 10.4166 24.5658 10.5044 24.7389 10.6775C24.912 10.8506 24.9998 11.0578 24.9998 11.3333C24.9998 11.6088 24.912 11.816 24.7389 11.9891C24.5658 12.1623 24.3586 12.25 24.0831 12.25ZM24.0831 16.5C23.8076 16.5 23.6004 16.4123 23.4273 16.2391C23.2541 16.066 23.1664 15.8588 23.1664 15.5833C23.1664 15.3078 23.2541 15.1006 23.4273 14.9275C23.6004 14.7544 23.8076 14.6666 24.0831 14.6666C24.3586 14.6666 24.5658 14.7544 24.7389 14.9275C24.912 15.1006 24.9998 15.3078 24.9998 15.5833C24.9998 15.8588 24.912 16.066 24.7389 16.2391C24.5658 16.4123 24.3586 16.5 24.0831 16.5Z" fill="#F9F328"/>
<path d="M6.58309 28.3333H7.19265C7.55316 28.6673 7.99864 28.8333 8.49976 28.8333H21.2498H21.7498V28.3333V25.5V25H21.2498H7.08309H6.58309V25.5V26.9166V28.3333ZM10.9783 5.31187L12.7498 3.54042L14.5212 5.31187L14.8748 5.66542L15.2283 5.31187L16.9998 3.54042L18.7712 5.31187L19.1248 5.66542L19.4783 5.31187L21.2498 3.54042L23.0212 5.31187L23.3748 5.66542L23.7283 5.31187L25.4998 3.54042L27.2712 5.31187L27.6248 5.66542L27.9783 5.31187L29.2498 4.04042V26.9166C29.2498 27.9661 28.8882 28.842 28.1566 29.5735C27.4251 30.3051 26.5492 30.6666 25.4998 30.6666H8.49976C7.45029 30.6666 6.57445 30.3051 5.84289 29.5735C5.11134 28.842 4.74976 27.9661 4.74976 26.9166V23.1666H8.49976H8.99976V22.6666V4.04042L10.2712 5.31187L10.6248 5.66542L10.9783 5.31187ZM27.4164 7.08331V6.58331H26.9164H11.3331H10.8331V7.08331V22.6666V23.1666H11.3331H23.5831V26.9166C23.5831 27.444 23.7669 27.9097 24.1368 28.2796C24.5068 28.6495 24.9724 28.8333 25.4998 28.8333C26.0271 28.8333 26.4928 28.6495 26.8627 28.2796C27.2326 27.9097 27.4164 27.444 27.4164 26.9166V7.08331ZM13.2498 12.25V10.4166H20.7498V12.25H13.2498ZM13.2498 16.5V14.6666H20.7498V16.5H13.2498ZM24.0831 12.25C23.8076 12.25 23.6004 12.1623 23.4273 11.9891C23.2541 11.816 23.1664 11.6088 23.1664 11.3333C23.1664 11.0578 23.2541 10.8506 23.4273 10.6775C23.6004 10.5044 23.8076 10.4166 24.0831 10.4166C24.3586 10.4166 24.5658 10.5044 24.7389 10.6775C24.912 10.8506 24.9998 11.0578 24.9998 11.3333C24.9998 11.6088 24.912 11.816 24.7389 11.9891C24.5658 12.1623 24.3586 12.25 24.0831 12.25ZM24.0831 16.5C23.8076 16.5 23.6004 16.4123 23.4273 16.2391C23.2541 16.066 23.1664 15.8588 23.1664 15.5833C23.1664 15.3078 23.2541 15.1006 23.4273 14.9275C23.6004 14.7544 23.8076 14.6666 24.0831 14.6666C24.3586 14.6666 24.5658 14.7544 24.7389 14.9275C24.912 15.1006 24.9998 15.3078 24.9998 15.5833C24.9998 15.8588 24.912 16.066 24.7389 16.2391C24.5658 16.4123 24.3586 16.5 24.0831 16.5Z" stroke="black"/>
<path d="M6.58309 28.3333H7.19265C7.55316 28.6673 7.99864 28.8333 8.49976 28.8333H21.2498H21.7498V28.3333V25.5V25H21.2498H7.08309H6.58309V25.5V26.9166V28.3333ZM10.9783 5.31187L12.7498 3.54042L14.5212 5.31187L14.8748 5.66542L15.2283 5.31187L16.9998 3.54042L18.7712 5.31187L19.1248 5.66542L19.4783 5.31187L21.2498 3.54042L23.0212 5.31187L23.3748 5.66542L23.7283 5.31187L25.4998 3.54042L27.2712 5.31187L27.6248 5.66542L27.9783 5.31187L29.2498 4.04042V26.9166C29.2498 27.9661 28.8882 28.842 28.1566 29.5735C27.4251 30.3051 26.5492 30.6666 25.4998 30.6666H8.49976C7.45029 30.6666 6.57445 30.3051 5.84289 29.5735C5.11134 28.842 4.74976 27.9661 4.74976 26.9166V23.1666H8.49976H8.99976V22.6666V4.04042L10.2712 5.31187L10.6248 5.66542L10.9783 5.31187ZM27.4164 7.08331V6.58331H26.9164H11.3331H10.8331V7.08331V22.6666V23.1666H11.3331H23.5831V26.9166C23.5831 27.444 23.7669 27.9097 24.1368 28.2796C24.5068 28.6495 24.9724 28.8333 25.4998 28.8333C26.0271 28.8333 26.4928 28.6495 26.8627 28.2796C27.2326 27.9097 27.4164 27.444 27.4164 26.9166V7.08331ZM13.2498 12.25V10.4166H20.7498V12.25H13.2498ZM13.2498 16.5V14.6666H20.7498V16.5H13.2498ZM24.0831 12.25C23.8076 12.25 23.6004 12.1623 23.4273 11.9891C23.2541 11.816 23.1664 11.6088 23.1664 11.3333C23.1664 11.0578 23.2541 10.8506 23.4273 10.6775C23.6004 10.5044 23.8076 10.4166 24.0831 10.4166C24.3586 10.4166 24.5658 10.5044 24.7389 10.6775C24.912 10.8506 24.9998 11.0578 24.9998 11.3333C24.9998 11.6088 24.912 11.816 24.7389 11.9891C24.5658 12.1623 24.3586 12.25 24.0831 12.25ZM24.0831 16.5C23.8076 16.5 23.6004 16.4123 23.4273 16.2391C23.2541 16.066 23.1664 15.8588 23.1664 15.5833C23.1664 15.3078 23.2541 15.1006 23.4273 14.9275C23.6004 14.7544 23.8076 14.6666 24.0831 14.6666C24.3586 14.6666 24.5658 14.7544 24.7389 14.9275C24.912 15.1006 24.9998 15.3078 24.9998 15.5833C24.9998 15.8588 24.912 16.066 24.7389 16.2391C24.5658 16.4123 24.3586 16.5 24.0831 16.5Z" stroke="black" stroke-opacity="0.2"/>
</g>
</svg>
