<svg width="33" height="33" viewBox="0 0 33 33" fill="none" xmlns="http://www.w3.org/2000/svg">
<path d="M12.2347 22.698L16.5003 20.1094L20.7659 22.698L19.6357 17.849L23.4274 14.5677L18.4326 14.1667L16.5003 9.57296L14.568 14.1667L9.5732 14.5677L13.3649 17.849L12.2347 22.698ZM16.5003 32.9792L11.6149 28.1667H4.83362V21.3855L0.0211182 16.5L4.83362 11.6146V4.83337H11.6149L16.5003 0.020874L21.3857 4.83337H28.167V11.6146L32.9795 16.5L28.167 21.3855V28.1667H21.3857L16.5003 32.9792ZM16.5003 28.8959L20.1461 25.25H25.2503V20.1459L28.8961 16.5L25.2503 12.8542V7.75004H20.1461L16.5003 4.10421L12.8545 7.75004H7.75028V12.8542L4.10445 16.5L7.75028 20.1459V25.25H12.8545L16.5003 28.8959Z" fill="#F9F328"/>
</svg>
