<svg width="31" height="27" viewBox="0 0 31 27" fill="none" xmlns="http://www.w3.org/2000/svg">
<path d="M0.916687 26.625V9.125L12.5834 0.375L20.4219 6.28125C19.8143 6.35417 19.2431 6.49392 18.7084 6.70052C18.1736 6.90712 17.6632 7.18056 17.1771 7.52083L12.5834 4.02083L3.83335 10.5833V23.7083H9.66669V26.625H0.916687ZM12.5834 26.625V23.8542C12.5834 23.3438 12.711 22.8637 12.9662 22.4141C13.2214 21.9644 13.5677 21.6059 14.0052 21.3385C15.1233 20.6823 16.296 20.184 17.5235 19.8438C18.7509 19.5035 20.0209 19.3333 21.3334 19.3333C22.6459 19.3333 23.9158 19.5035 25.1432 19.8438C26.3707 20.184 27.5434 20.6823 28.6615 21.3385C29.099 21.6059 29.4453 21.9644 29.7005 22.4141C29.9557 22.8637 30.0834 23.3438 30.0834 23.8542V26.625H12.5834ZM15.7188 23.7083H26.9479C26.0972 23.2222 25.1979 22.8576 24.25 22.6146C23.3021 22.3715 22.3299 22.25 21.3334 22.25C20.3368 22.25 19.3646 22.3715 18.4167 22.6146C17.4688 22.8576 16.5695 23.2222 15.7188 23.7083ZM21.3334 17.875C20.1181 17.875 19.0851 17.4497 18.2344 16.599C17.3837 15.7483 16.9584 14.7153 16.9584 13.5C16.9584 12.2847 17.3837 11.2517 18.2344 10.401C19.0851 9.55035 20.1181 9.125 21.3334 9.125C22.5486 9.125 23.5816 9.55035 24.4323 10.401C25.283 11.2517 25.7084 12.2847 25.7084 13.5C25.7084 14.7153 25.283 15.7483 24.4323 16.599C23.5816 17.4497 22.5486 17.875 21.3334 17.875ZM21.3334 14.9583C21.7465 14.9583 22.0929 14.8186 22.3724 14.5391C22.6519 14.2596 22.7917 13.9132 22.7917 13.5C22.7917 13.0868 22.6519 12.7405 22.3724 12.4609C22.0929 12.1814 21.7465 12.0417 21.3334 12.0417C20.9202 12.0417 20.5738 12.1814 20.2943 12.4609C20.0148 12.7405 19.875 13.0868 19.875 13.5C19.875 13.9132 20.0148 14.2596 20.2943 14.5391C20.5738 14.8186 20.9202 14.9583 21.3334 14.9583Z" fill="#F9F328"/>
</svg>
