<svg width="30" height="26" viewBox="0 0 30 26" fill="none" xmlns="http://www.w3.org/2000/svg">
<path d="M24.5458 14.4167H7.33333V11.5833H24.5458L22.35 9.3875L24.3333 7.33333L30 13L24.3333 18.6667L22.35 16.6125L24.5458 14.4167ZM17.25 8.75V3.08333H3.08333V22.9167H17.25V17.25H20.0833V22.9167C20.0833 23.6958 19.8059 24.3628 19.251 24.9177C18.6962 25.4726 18.0292 25.75 17.25 25.75H3.08333C2.30417 25.75 1.63715 25.4726 1.08229 24.9177C0.527431 24.3628 0.25 23.6958 0.25 22.9167V3.08333C0.25 2.30417 0.527431 1.63715 1.08229 1.08229C1.63715 0.527431 2.30417 0.25 3.08333 0.25H17.25C18.0292 0.25 18.6962 0.527431 19.251 1.08229C19.8059 1.63715 20.0833 2.30417 20.0833 3.08333V8.75H17.25Z" fill="#F9F328"/>
</svg>
