<svg width="36" height="36" viewBox="0 0 36 36" fill="none" xmlns="http://www.w3.org/2000/svg">
<mask id="mask0_30_3427" style="mask-type:alpha" maskUnits="userSpaceOnUse" x="0" y="0" width="36" height="36">
<rect width="35.3135" height="35.3135" fill="#D9D9D9"/>
</mask>
<g mask="url(#mask0_30_3427)">
<path d="M1.47137 29.4279V25.308C1.47137 24.4742 1.68595 23.7078 2.11511 23.0089C2.54427 22.31 3.11443 21.7766 3.82561 21.4088C5.34605 20.6486 6.89101 20.0784 8.4605 19.6983C10.03 19.3182 11.624 19.1281 13.2425 19.1281C14.8611 19.1281 16.4551 19.3182 18.0246 19.6983C19.5941 20.0784 21.139 20.6486 22.6595 21.4088C23.3706 21.7766 23.9408 22.31 24.37 23.0089C24.7991 23.7078 25.0137 24.4742 25.0137 25.308V29.4279H1.47137ZM27.9565 29.4279V25.0137C27.9565 23.9347 27.6561 22.8986 27.0553 21.9054C26.4544 20.9122 25.6022 20.06 24.4987 19.3488C25.7494 19.496 26.9265 19.7473 28.0301 20.1029C29.1336 20.4585 30.1636 20.8938 31.12 21.4088C32.0028 21.8992 32.6772 22.4449 33.1431 23.0457C33.6091 23.6465 33.8421 24.3025 33.8421 25.0137V29.4279H27.9565ZM13.2425 17.6567C11.624 17.6567 10.2384 17.0804 9.08584 15.9278C7.93325 14.7752 7.35695 13.3897 7.35695 11.7711C7.35695 10.1526 7.93325 8.76704 9.08584 7.61445C10.2384 6.46186 11.624 5.88556 13.2425 5.88556C14.8611 5.88556 16.2466 6.46186 17.3992 7.61445C18.5518 8.76704 19.1281 10.1526 19.1281 11.7711C19.1281 13.3897 18.5518 14.7752 17.3992 15.9278C16.2466 17.0804 14.8611 17.6567 13.2425 17.6567ZM27.9565 11.7711C27.9565 13.3897 27.3802 14.7752 26.2276 15.9278C25.075 17.0804 23.6894 17.6567 22.0709 17.6567C21.8011 17.6567 21.4578 17.6261 21.0409 17.5648C20.624 17.5034 20.2807 17.436 20.011 17.3624C20.6731 16.5777 21.1819 15.7071 21.5375 14.7507C21.8931 13.7943 22.0709 12.8011 22.0709 11.7711C22.0709 10.7412 21.8931 9.74797 21.5375 8.79156C21.1819 7.83516 20.6731 6.96458 20.011 6.17984C20.3543 6.05722 20.6976 5.97752 21.0409 5.94074C21.3843 5.90395 21.7276 5.88556 22.0709 5.88556C23.6894 5.88556 25.075 6.46186 26.2276 7.61445C27.3802 8.76704 27.9565 10.1526 27.9565 11.7711ZM4.41416 26.4851H22.0709V25.308C22.0709 25.0382 22.0035 24.793 21.8686 24.5723C21.7337 24.3516 21.5559 24.1799 21.3352 24.0573C20.0109 23.3952 18.6744 22.8986 17.3257 22.5675C15.9769 22.2364 14.6158 22.0709 13.2425 22.0709C11.8692 22.0709 10.5082 22.2364 9.15941 22.5675C7.81063 22.8986 6.47412 23.3952 5.14986 24.0573C4.92915 24.1799 4.75136 24.3516 4.61648 24.5723C4.4816 24.793 4.41416 25.0382 4.41416 25.308V26.4851ZM13.2425 14.7139C14.0518 14.7139 14.7446 14.4258 15.3209 13.8495C15.8972 13.2732 16.1853 12.5804 16.1853 11.7711C16.1853 10.9619 15.8972 10.2691 15.3209 9.69279C14.7446 9.1165 14.0518 8.82835 13.2425 8.82835C12.4333 8.82835 11.7405 9.1165 11.1642 9.69279C10.5879 10.2691 10.2997 10.9619 10.2997 11.7711C10.2997 12.5804 10.5879 13.2732 11.1642 13.8495C11.7405 14.4258 12.4333 14.7139 13.2425 14.7139Z" fill="#F9F328"/>
</g>
</svg>
